//// ------------------------------------------------------
//// THIS FILE WAS AUTOMATICALLY GENERATED (DO NOT MODIFY)
//// ------------------------------------------------------

Table users {
  id Int [pk, increment]
  fullname String [not null]
  phone String [unique]
  email String [unique]
  birthday DateTime
  vk String
  role Role [not null, default: 'USER']
  events members [not null]
  accounts accounts [not null]
}

Table accounts {
  id Int [pk, increment]
  userId Int [not null]
  type AccountType [not null]
  channelId Int [not null]
  username String
  user users [not null]

  indexes {
    (channelId, type) [unique]
  }
}

Table events {
  id Int [pk, increment]
  type EventType [not null]
  title String [not null]
  startDate DateTime [not null]
  endDate DateTime
  link String
  price Int
  discountedPrice Int
  discountEndDate DateTime
  isPublic Boolean [not null, default: true]
  members members [not null]
}

Table members {
  eventId Int [not null]
  userId Int [not null]
  event events [not null]
  user users [not null]

  indexes {
    (eventId, userId) [pk]
  }
}

Table categories {
  id Int [pk, increment]
  title String [not null]
  description String [not null]
  createdAt DateTime [default: `now()`, not null]
  updatedAt DateTime [not null]
  posts posts [not null]
  CategorySchedule category_schedules [not null]
}

Table category_schedules {
  weekday Int [not null]
  hour Int [not null]
  categoryId Int
  category categories

  indexes {
    (weekday, hour) [pk]
  }
}

Table posts {
  id Int [pk, increment]
  categoryId Int [not null]
  content String [not null]
  isQueued Boolean [not null]
  createdAt DateTime [default: `now()`, not null]
  updatedAt DateTime [not null]
  category categories [not null]
}

Table questions {
  id Int [pk, increment]
  question String [not null]
  answer String [not null]
}

Table photos {
  id Int [pk, increment]
  fileId String [not null]
  groupId String
  isUsed Boolean [not null, default: false]
}

Table quotes {
  id Int [pk, increment]
  text String [not null]
  author String
}

Table verses {
  id Int [pk, increment]
  text String [not null]
  author String
}

Table settings {
  id Int [pk, increment]
  photoSchedulerSpec String [not null]
}

Enum EventType {
  COMMON
  TRIP
}

Enum Role {
  OWNER
  ADMIN
  MEMBER
  USER
}

Enum AccountType {
  TELEGRAM
  VK
}

Ref: accounts.userId > users.id [delete: Cascade]

Ref: members.eventId > events.id [delete: Cascade]

Ref: members.userId > users.id [delete: Cascade]

Ref: category_schedules.categoryId > categories.id [delete: Cascade]

Ref: posts.categoryId > categories.id [delete: Cascade]